<svg height="35" width="80" xmlns="http://www.w3.org/2000/svg"><text x="6.606521" y="10.002353"><tspan x="6.606521" y="76.29718"/></text><path d="m45.121121 10.000581q0-.8256323-.300229-1.0508046-.225173-.2251723-.825632-.2251723h-1.951493v4.5034459h1.951493q1.125861 0 1.125861-1.501149zm8.631605 0q0-.9006897-.375287-1.125862-.30023-.2251723-1.125861-.2251723-.825632 0-1.200919.2251723-.375287.2251723-.375287 1.125862v1.951493q0 .900689.375287 1.125861.375287.225173 1.200919.225173.825631 0 1.125861-.225173.375287-.225172.375287-1.125861zm14.861372 2.476895q0-.60046-.225172-.675517-.150115-.07506-.675517-.07506h-1.726321v1.576207h1.651264q.975746 0 .975746-.825632zm-.07506-3.1524124q0-.7505743-.750574-.7505743h-1.801379v1.5762057h1.576206q.975747 0 .975747-.8256314zm-21.166194 2.4018374q0 1.726321-.675516 2.551953-.60046.825632-2.326781.825632h-4.503446v-8.3313752h4.203216q1.726321 0 2.476896.7505744.825631.7505743.825631 2.4768958zm8.706663.450345q0 1.951493-1.125862 2.476895-1.050804.525402-2.702067.525402-1.726321 0-2.777125-.525402-1.050804-.525402-1.050804-2.476895v-2.4018378q0-1.9514933 1.050804-2.4768953 1.050804-.5254021 2.777125-.5254021 1.651263 0 2.702067.5254021 1.125862.525402 1.125862 2.4768953zm1.050804 2.92724v-8.3313752h2.251723v6.4549392h3.377584v1.876436zm13.73551-2.251723q0 1.501149-.750574 1.876436-.675517.375287-1.951493.375287h-4.428389v-8.3313752h4.353331q1.275977 0 1.951494.4503446.675516.3752872.675516 1.726321 0 .8256318-.225172 1.2759766-.225172.450344-1.050804.600459v.150115q.900689.07506 1.125862.60046.300229.450344.300229 1.275976zm5.629308-.675517v2.92724h-2.251723v-2.92724l-2.92724-5.4041352h2.476895l1.501149 3.2274702h.07506l1.576206-3.2274702h2.476896zm-69.1278969 14.6362q0-2.176666-2.1766656-2.176666h-.9757467v4.353331h.9757467q2.1766656 0 2.1766656-2.176665zm5.7043649-15.687004q0-2.9272399-1.726321-4.8787332-1.9514932-2.1766656-4.1281588-2.1766656h-2.9272399v13.8856258h2.9272399q2.4018379 0 4.1281588-1.951494.900689-1.050804 1.275976-2.32678.450345-1.275977.450345-2.551953zm14.411027-7.0553988h-2.92724q-2.176665 0-4.128158 2.1766656-1.726321 2.1016082-1.726321 4.8787332 0 2.777125 1.726321 4.878733 1.726321 1.951494 4.128158 1.951494h2.92724zm40.230785 21.0160818-.900689 2.777125h1.801378zm15.687004-21.916771h-47.886643v15.762061h47.886643zm-74.0066302 23.643092q0 1.951493-1.0508041 3.002297-.9757466.975747-2.777125.975747h-3.3775846v-7.881031h3.3775846q3.8279291 0 3.8279291 3.902987zm7.4306862 3.978044v-7.881031h2.101608v7.881031zm-15.2366594-10.508041v-18.4641288h13.8105684v18.4641288zm31.2238924 10.508041-.150115-.900689q-.375287.600459-.975746.825631-.60046.150115-1.200919.150115-1.801379 0-2.852183-1.125861-1.050804-1.200919-1.050804-2.92724 0-1.726321 1.050804-2.852183 1.050804-1.200919 2.852183-1.200919 1.275976 0 2.32678.675517 1.050804.675517 1.200919 2.176666h-2.026551q-.150114-1.125862-1.576206-1.125862-.975746 0-1.426091.750575-.375287.750574-.375287 1.576206 0 .900689.375287 1.651263.450345.675517 1.426091.675517 1.651264 0 1.801379-1.200919h-1.426091v-1.501148h3.302527v4.353331zm-16.212406-10.508041v-18.4641288h13.735511v18.4641288zm25.369413 10.508041v-7.881031h2.026551v7.881031zm13.885625-6.15471v6.15471h-2.02655v-6.15471h-2.326781v-1.726321h6.755169v1.726321zm13.735511 6.15471-.525402-1.426092h-2.702068l-.450344 1.426092h-2.101608l2.927239-7.881031h2.101609l2.92724 7.881031zm-35.427109-10.508041v-18.4641288h50.588711v18.4641288zm44.659173 10.508041v-7.881031h2.026551v6.079652h3.677814v1.801379z" transform="matrix(.90840319 0 0 1.0077447 .936461 1.230843)"/></svg>