<?xml version="1.0" encoding="UTF-8"?>
<svg id="svg19" width="1792" height="1792" version="1.1" viewBox="0 0 1792 1792" xmlns="http://www.w3.org/2000/svg">
 <path id="path17" d="m1631 141c12.667-12.667 23.333-17 32-13s13 14.667 13 32v1472c0 17.333-4.3333 28-13 32s-19.333-0.3333-32-13l-710-710c-6-6-10.333-12.333-13-19v710c0 17.333-4.3333 28-13 32s-19.333-0.3333-32-13l-710-710c-12.667-12.667-19-27.667-19-45s6.3333-32.333 19-45l710-710c12.667-12.667 23.333-17 32-13s13 14.667 13 32v710c2.6667-6.6667 7-13 13-19z" fill="#fff"/>
</svg>
