<?xml version="1.0" encoding="UTF-8"?>
<svg id="svg138" width="1792" height="1792" version="1.1" viewBox="0 0 1792 1792" xmlns="http://www.w3.org/2000/svg" xmlns:cc="http://creativecommons.org/ns#" xmlns:dc="http://purl.org/dc/elements/1.1/" xmlns:rdf="http://www.w3.org/1999/02/22-rdf-syntax-ns#">
 <metadata id="metadata4540">
  <rdf:RDF>
   <cc:Work rdf:about="">
    <dc:format>image/svg+xml</dc:format>
    <dc:type rdf:resource="http://purl.org/dc/dcmitype/StillImage"/>
   </cc:Work>
  </rdf:RDF>
 </metadata>
 <path id="path136" d="m187 1651c-12.667 12.667-23.333 17-32 13s-13-14.667-13-32v-1472c0-17.333 4.3333-28 13-32s19.333 0.33333 32 13l710 710c6 6 10.333 12.333 13 19v-710c0-17.333 4.3333-28 13-32s19.333 0.33333 32 13l710 710c12.667 12.667 19 27.667 19 45s-6.3333 32.333-19 45l-710 710c-12.667 12.667-23.333 17-32 13s-13-14.667-13-32v-710c-2.6667 6.6667-7 13-13 19z" fill="#fff"/>
</svg>
